<svg xmlns="http://www.w3.org/2000/svg" viewBox="0 0 1200 600" role="img" aria-label="Client Communication preview">
  <defs>
    <linearGradient id="cc-bg" x1="0" y1="0" x2="1" y2="1">
      <stop offset="0" stop-color="#a855f7" stop-opacity="0.2"/>
      <stop offset="1" stop-color="#ec4899" stop-opacity="0.3"/>
    </linearGradient>
  </defs>
  <rect width="1200" height="600" fill="url(#cc-bg)"/>
  <g transform="translate(180 90)">
    <rect width="840" height="420" rx="24" fill="#ffffff" fill-opacity="0.94" stroke="#0f172a" stroke-opacity="0.06"/>
    <g transform="translate(40 60)">
      <rect width="380" height="60" rx="14" fill="#a855f7" fill-opacity="0.18"/>
      <circle cx="32" cy="30" r="16" fill="#a855f7" fill-opacity="0.6"/>
      <rect x="60" y="18" width="220" height="10" rx="5" fill="#0f172a" fill-opacity="0.55"/>
      <rect x="60" y="36" width="160" height="8" rx="4" fill="#0f172a" fill-opacity="0.3"/>
    </g>
    <g transform="translate(420 140)">
      <rect width="380" height="60" rx="14" fill="#ec4899" fill-opacity="0.18"/>
      <circle cx="348" cy="30" r="16" fill="#ec4899" fill-opacity="0.6"/>
      <rect x="100" y="18" width="220" height="10" rx="5" fill="#0f172a" fill-opacity="0.55"/>
      <rect x="180" y="36" width="140" height="8" rx="4" fill="#0f172a" fill-opacity="0.3"/>
    </g>
    <g transform="translate(40 220)">
      <rect width="380" height="60" rx="14" fill="#a855f7" fill-opacity="0.18"/>
      <circle cx="32" cy="30" r="16" fill="#a855f7" fill-opacity="0.6"/>
      <rect x="60" y="18" width="180" height="10" rx="5" fill="#0f172a" fill-opacity="0.55"/>
      <rect x="60" y="36" width="120" height="8" rx="4" fill="#0f172a" fill-opacity="0.3"/>
    </g>
    <g transform="translate(420 300)">
      <rect width="380" height="40" rx="20" fill="#0f172a" fill-opacity="0.05"/>
      <rect x="20" y="14" width="200" height="12" rx="6" fill="#0f172a" fill-opacity="0.4"/>
      <circle cx="350" cy="20" r="14" fill="#a855f7" fill-opacity="0.7"/>
    </g>
  </g>
</svg>
