<svg xmlns="http://www.w3.org/2000/svg" viewBox="0 0 1200 600" role="img" aria-label="Contact Management preview">
  <defs>
    <linearGradient id="cm-bg" x1="0" y1="0" x2="1" y2="1">
      <stop offset="0" stop-color="#0ea5e9" stop-opacity="0.18"/>
      <stop offset="1" stop-color="#6366f1" stop-opacity="0.32"/>
    </linearGradient>
    <linearGradient id="cm-card" x1="0" y1="0" x2="0" y2="1">
      <stop offset="0" stop-color="#ffffff" stop-opacity="0.95"/>
      <stop offset="1" stop-color="#ffffff" stop-opacity="0.82"/>
    </linearGradient>
  </defs>
  <rect width="1200" height="600" fill="url(#cm-bg)"/>
  <g transform="translate(180 130)">
    <rect width="840" height="340" rx="24" fill="url(#cm-card)" stroke="#0f172a" stroke-opacity="0.06"/>
    <g transform="translate(40 50)">
      <circle cx="40" cy="40" r="40" fill="#6366f1" fill-opacity="0.18"/>
      <circle cx="40" cy="40" r="22" fill="#6366f1" fill-opacity="0.55"/>
      <rect x="100" y="20" width="220" height="14" rx="7" fill="#0f172a" fill-opacity="0.65"/>
      <rect x="100" y="46" width="160" height="10" rx="5" fill="#0f172a" fill-opacity="0.32"/>
    </g>
    <g transform="translate(40 160)">
      <circle cx="40" cy="40" r="40" fill="#0ea5e9" fill-opacity="0.18"/>
      <circle cx="40" cy="40" r="22" fill="#0ea5e9" fill-opacity="0.55"/>
      <rect x="100" y="20" width="260" height="14" rx="7" fill="#0f172a" fill-opacity="0.65"/>
      <rect x="100" y="46" width="180" height="10" rx="5" fill="#0f172a" fill-opacity="0.32"/>
    </g>
    <g transform="translate(440 60)">
      <rect width="360" height="220" rx="16" fill="#0f172a" fill-opacity="0.05"/>
      <rect x="24" y="24" width="120" height="12" rx="6" fill="#0f172a" fill-opacity="0.45"/>
      <rect x="24" y="50" width="220" height="10" rx="5" fill="#0f172a" fill-opacity="0.25"/>
      <rect x="24" y="74" width="180" height="10" rx="5" fill="#0f172a" fill-opacity="0.25"/>
      <rect x="24" y="120" width="312" height="10" rx="5" fill="#0f172a" fill-opacity="0.18"/>
      <rect x="24" y="142" width="280" height="10" rx="5" fill="#0f172a" fill-opacity="0.18"/>
      <rect x="24" y="164" width="200" height="10" rx="5" fill="#0f172a" fill-opacity="0.18"/>
    </g>
  </g>
</svg>
