<svg xmlns="http://www.w3.org/2000/svg" viewBox="0 0 1200 600" role="img" aria-label="Seamless Integrations preview">
  <defs>
    <linearGradient id="in-bg" x1="0" y1="0" x2="1" y2="1">
      <stop offset="0" stop-color="#06b6d4" stop-opacity="0.2"/>
      <stop offset="1" stop-color="#3b82f6" stop-opacity="0.32"/>
    </linearGradient>
  </defs>
  <rect width="1200" height="600" fill="url(#in-bg)"/>
  <g transform="translate(600 300)">
    <circle r="80" fill="#ffffff" fill-opacity="0.95" stroke="#0f172a" stroke-opacity="0.08"/>
    <circle r="40" fill="#3b82f6" fill-opacity="0.6"/>
    <circle r="20" fill="#ffffff"/>
    <g stroke="#0f172a" stroke-opacity="0.18" stroke-width="2" stroke-dasharray="6 8" fill="none">
      <line x1="-300" y1="0" x2="-92" y2="0"/>
      <line x1="92" y1="0" x2="300" y2="0"/>
      <line x1="0" y1="-200" x2="0" y2="-92"/>
      <line x1="0" y1="92" x2="0" y2="200"/>
      <line x1="-200" y1="-160" x2="-60" y2="-60"/>
      <line x1="200" y1="-160" x2="60" y2="-60"/>
      <line x1="-200" y1="160" x2="-60" y2="60"/>
      <line x1="200" y1="160" x2="60" y2="60"/>
    </g>
    <g>
      <circle cx="-340" cy="0" r="36" fill="#ffffff" fill-opacity="0.95" stroke="#0f172a" stroke-opacity="0.08"/>
      <circle cx="-340" cy="0" r="14" fill="#06b6d4" fill-opacity="0.7"/>
      <circle cx="340" cy="0" r="36" fill="#ffffff" fill-opacity="0.95" stroke="#0f172a" stroke-opacity="0.08"/>
      <circle cx="340" cy="0" r="14" fill="#22c55e" fill-opacity="0.7"/>
      <circle cx="0" cy="-220" r="36" fill="#ffffff" fill-opacity="0.95" stroke="#0f172a" stroke-opacity="0.08"/>
      <circle cx="0" cy="-220" r="14" fill="#a855f7" fill-opacity="0.7"/>
      <circle cx="0" cy="220" r="36" fill="#ffffff" fill-opacity="0.95" stroke="#0f172a" stroke-opacity="0.08"/>
      <circle cx="0" cy="220" r="14" fill="#f59e0b" fill-opacity="0.7"/>
      <circle cx="-220" cy="-180" r="28" fill="#ffffff" fill-opacity="0.95" stroke="#0f172a" stroke-opacity="0.08"/>
      <circle cx="-220" cy="-180" r="10" fill="#ec4899" fill-opacity="0.7"/>
      <circle cx="220" cy="-180" r="28" fill="#ffffff" fill-opacity="0.95" stroke="#0f172a" stroke-opacity="0.08"/>
      <circle cx="220" cy="-180" r="10" fill="#0ea5e9" fill-opacity="0.7"/>
      <circle cx="-220" cy="180" r="28" fill="#ffffff" fill-opacity="0.95" stroke="#0f172a" stroke-opacity="0.08"/>
      <circle cx="-220" cy="180" r="10" fill="#6366f1" fill-opacity="0.7"/>
      <circle cx="220" cy="180" r="28" fill="#ffffff" fill-opacity="0.95" stroke="#0f172a" stroke-opacity="0.08"/>
      <circle cx="220" cy="180" r="10" fill="#ef4444" fill-opacity="0.7"/>
    </g>
  </g>
</svg>
