<svg xmlns="http://www.w3.org/2000/svg" viewBox="0 0 1200 600" role="img" aria-label="Invoicing & Billing preview">
  <defs>
    <linearGradient id="ib-bg" x1="0" y1="0" x2="1" y2="1">
      <stop offset="0" stop-color="#f59e0b" stop-opacity="0.18"/>
      <stop offset="1" stop-color="#ef4444" stop-opacity="0.28"/>
    </linearGradient>
  </defs>
  <rect width="1200" height="600" fill="url(#ib-bg)"/>
  <g transform="translate(260 90)">
    <rect width="680" height="420" rx="24" fill="#ffffff" fill-opacity="0.95" stroke="#0f172a" stroke-opacity="0.06"/>
    <g transform="translate(40 40)">
      <rect width="180" height="14" rx="7" fill="#0f172a" fill-opacity="0.7"/>
      <rect y="30" width="120" height="10" rx="5" fill="#0f172a" fill-opacity="0.35"/>
      <g transform="translate(420 0)">
        <rect width="180" height="14" rx="7" fill="#f59e0b" fill-opacity="0.85"/>
        <rect y="30" width="120" height="10" rx="5" fill="#0f172a" fill-opacity="0.35"/>
      </g>
    </g>
    <g transform="translate(40 110)">
      <rect width="600" height="56" rx="10" fill="#0f172a" fill-opacity="0.05"/>
      <rect x="16" y="22" width="240" height="12" rx="6" fill="#0f172a" fill-opacity="0.55"/>
      <rect x="500" y="22" width="80" height="12" rx="6" fill="#0f172a" fill-opacity="0.55"/>
    </g>
    <g transform="translate(40 180)">
      <rect width="600" height="56" rx="10" fill="#0f172a" fill-opacity="0.05"/>
      <rect x="16" y="22" width="200" height="12" rx="6" fill="#0f172a" fill-opacity="0.55"/>
      <rect x="500" y="22" width="80" height="12" rx="6" fill="#0f172a" fill-opacity="0.55"/>
    </g>
    <g transform="translate(40 250)">
      <rect width="600" height="56" rx="10" fill="#0f172a" fill-opacity="0.05"/>
      <rect x="16" y="22" width="280" height="12" rx="6" fill="#0f172a" fill-opacity="0.55"/>
      <rect x="500" y="22" width="80" height="12" rx="6" fill="#0f172a" fill-opacity="0.55"/>
    </g>
    <g transform="translate(40 330)">
      <rect width="600" height="46" rx="10" fill="#22c55e" fill-opacity="0.25"/>
      <rect x="16" y="18" width="120" height="12" rx="6" fill="#0f172a" fill-opacity="0.7"/>
      <rect x="500" y="18" width="80" height="12" rx="6" fill="#0f172a" fill-opacity="0.7"/>
    </g>
  </g>
</svg>
