<svg xmlns="http://www.w3.org/2000/svg" viewBox="0 0 32 32" width="32" height="32" aria-hidden="true">
  <path fill="#25D366" d="M16 0C7.16 0 0 7.16 0 16c0 2.83.74 5.49 2.04 7.78L0 32l8.43-2.21A15.96 15.96 0 0 0 16 32c8.84 0 16-7.16 16-16S24.84 0 16 0z"/>
  <path fill="#FFFFFF" d="M23.4 19.36c-.34-.17-2.04-1-2.36-1.12-.32-.12-.55-.17-.78.18-.23.34-.9 1.12-1.1 1.35-.2.23-.41.26-.75.09-.34-.17-1.45-.53-2.76-1.7-1.02-.91-1.71-2.03-1.91-2.37-.2-.34-.02-.52.15-.69.15-.15.34-.4.51-.6.17-.2.23-.34.34-.57.11-.23.06-.43-.03-.6-.09-.17-.78-1.86-1.06-2.55-.28-.67-.57-.58-.78-.59l-.66-.01c-.23 0-.6.09-.92.43-.32.34-1.21 1.18-1.21 2.88s1.23 3.34 1.41 3.57c.17.23 2.43 3.71 5.89 5.21.82.35 1.46.56 1.96.72.83.27 1.59.23 2.18.14.66-.1 2.04-.83 2.33-1.64.29-.81.29-1.5.2-1.64-.09-.14-.32-.23-.66-.4Z"/>
</svg>
