<svg version="1" xmlns="http://www.w3.org/2000/svg" viewBox="0 0 48 48">
  <path fill="#E01E5A" d="M13.5 28.5c0 1.9-1.5 3.4-3.4 3.4S6.7 30.4 6.7 28.5s1.5-3.4 3.4-3.4h3.4v3.4zM15.2 28.5c0-1.9 1.5-3.4 3.4-3.4s3.4 1.5 3.4 3.4v8.5c0 1.9-1.5 3.4-3.4 3.4s-3.4-1.5-3.4-3.4v-8.5z"/>
  <path fill="#36C5F0" d="M18.6 14.8c-1.9 0-3.4-1.5-3.4-3.4S16.7 8 18.6 8s3.4 1.5 3.4 3.4v3.4h-3.4zM18.6 16.6c1.9 0 3.4 1.5 3.4 3.4s-1.5 3.4-3.4 3.4h-8.5c-1.9 0-3.4-1.5-3.4-3.4s1.5-3.4 3.4-3.4h8.5z"/>
  <path fill="#2EB67D" d="M32.3 20c0-1.9 1.5-3.4 3.4-3.4S39.1 18.1 39.1 20s-1.5 3.4-3.4 3.4h-3.4V20zM30.5 20c0 1.9-1.5 3.4-3.4 3.4s-3.4-1.5-3.4-3.4v-8.5c0-1.9 1.5-3.4 3.4-3.4s3.4 1.5 3.4 3.4V20z"/>
  <path fill="#ECB22E" d="M27.1 33.6c1.9 0 3.4 1.5 3.4 3.4s-1.5 3.4-3.4 3.4-3.4-1.5-3.4-3.4v-3.4h3.4zM27.1 31.9c-1.9 0-3.4-1.5-3.4-3.4s1.5-3.4 3.4-3.4h8.5c1.9 0 3.4 1.5 3.4 3.4s-1.5 3.4-3.4 3.4h-8.5z"/>
</svg>
