<svg version="1" xmlns="http://www.w3.org/2000/svg" viewBox="0 0 48 48">
  <circle fill="#25D366" cx="24" cy="24" r="20"/>
  <path fill="#FFFFFF" d="M24 9.5c-8 0-14.5 6.5-14.5 14.5 0 2.6.7 5 1.9 7.1L9.5 38.5l7.6-2c2 1.1 4.4 1.7 6.9 1.7 8 0 14.5-6.5 14.5-14.5S32 9.5 24 9.5z"/>
  <path fill="#25D366" d="M32.1 28.3c-.4-.2-2.3-1.1-2.7-1.3-.4-.1-.6-.2-.9.2-.3.4-1 1.3-1.3 1.5-.2.3-.5.3-.9.1-.4-.2-1.6-.6-3-1.8-1.1-1-1.8-2.2-2.1-2.6-.2-.4 0-.6.2-.8.2-.2.4-.5.6-.7.2-.2.3-.4.4-.6.1-.3 0-.5 0-.7-.1-.2-.9-2.1-1.2-2.9-.3-.7-.6-.6-.9-.6h-.7c-.3 0-.7.1-1 .5-.4.4-1.4 1.3-1.4 3.2 0 1.9 1.4 3.7 1.6 4 .2.3 2.7 4.2 6.6 5.9.9.4 1.6.6 2.2.8.9.3 1.8.2 2.5.2.8-.1 2.3-1 2.6-1.9.3-.9.3-1.8.2-1.9z"/>
</svg>
