<svg xmlns="http://www.w3.org/2000/svg" viewBox="0 0 1600 900" width="1600" height="900" role="img" aria-label="Solo coach client network">
  <defs>
    <linearGradient id="bg" x1="0" y1="0" x2="1" y2="1">
      <stop offset="0" stop-color="#10B981"/>
      <stop offset="1" stop-color="#22D3EE"/>
    </linearGradient>
  </defs>
  <rect width="1600" height="900" fill="url(#bg)"/>
  <g transform="translate(800 450)" stroke="#FFFFFF" stroke-opacity="0.55" stroke-width="2" fill="none">
    <line x1="0" y1="0" x2="-300" y2="-200"/>
    <line x1="0" y1="0" x2="300" y2="-200"/>
    <line x1="0" y1="0" x2="-380" y2="40"/>
    <line x1="0" y1="0" x2="380" y2="40"/>
    <line x1="0" y1="0" x2="-260" y2="220"/>
    <line x1="0" y1="0" x2="260" y2="220"/>
    <line x1="0" y1="0" x2="-120" y2="-260"/>
    <line x1="0" y1="0" x2="120" y2="-260"/>
  </g>
  <g fill="#FFFFFF">
    <circle cx="500" cy="250" r="38"/>
    <circle cx="800" cy="190" r="38"/>
    <circle cx="1100" cy="250" r="38"/>
    <circle cx="420" cy="490" r="38"/>
    <circle cx="1180" cy="490" r="38"/>
    <circle cx="540" cy="670" r="38"/>
    <circle cx="1060" cy="670" r="38"/>
    <circle cx="680" cy="190" r="32"/>
    <circle cx="920" cy="190" r="32"/>
  </g>
  <g transform="translate(800 450)">
    <circle r="68" fill="#FFFFFF"/>
    <circle r="58" fill="#10B981"/>
    <text text-anchor="middle" y="10" font-family="ui-sans-serif, system-ui, sans-serif" font-size="32" font-weight="800" fill="#FFFFFF">Mira</text>
  </g>
  <text x="80" y="820" font-family="ui-sans-serif, system-ui, sans-serif" font-size="40" font-weight="700" fill="#FFFFFF">80 active clients · 1 coach · 3 saved views</text>
</svg>
