<svg xmlns="http://www.w3.org/2000/svg" viewBox="0 0 1600 900" width="1600" height="900" role="img" aria-label="Bulk stage move">
  <defs>
    <linearGradient id="bg" x1="0" y1="0" x2="1" y2="1">
      <stop offset="0" stop-color="#6366F1"/>
      <stop offset="1" stop-color="#7C3AED"/>
    </linearGradient>
  </defs>
  <rect width="1600" height="900" fill="url(#bg)"/>
  <g transform="translate(220 180)">
    <rect width="1160" height="540" rx="24" fill="#FFFFFF" opacity="0.97"/>
    <g transform="translate(40 40)" font-family="ui-sans-serif, system-ui, sans-serif" font-size="18" font-weight="700" fill="#312E81">
      <rect x="0" y="0" width="320" height="460" rx="14" fill="#EEF2FF"/>
      <text x="20" y="36">Discovery</text>
      <rect x="360" y="0" width="320" height="460" rx="14" fill="#E0E7FF"/>
      <text x="380" y="36">Proposal</text>
      <rect x="720" y="0" width="320" height="460" rx="14" fill="#C7D2FE"/>
      <text x="740" y="36">Closed Won</text>
    </g>
    <g transform="translate(60 110)">
      <g fill="#FFFFFF" stroke="#6366F1" stroke-width="3">
        <rect x="0" y="0" width="280" height="64" rx="10"/>
        <rect x="0" y="76" width="280" height="64" rx="10"/>
        <rect x="0" y="152" width="280" height="64" rx="10"/>
        <rect x="0" y="228" width="280" height="64" rx="10"/>
        <rect x="0" y="304" width="280" height="64" rx="10"/>
      </g>
      <g font-family="ui-sans-serif, system-ui, sans-serif" font-size="16" font-weight="600" fill="#312E81">
        <text x="20" y="38">Acme Co</text>
        <text x="20" y="114">Globex Ltd</text>
        <text x="20" y="190">Initech</text>
        <text x="20" y="266">Soylent Corp</text>
        <text x="20" y="342">Hooli</text>
      </g>
    </g>
    <g transform="translate(420 200)" stroke="#FFFFFF" stroke-width="10" fill="none" stroke-linecap="round" stroke-linejoin="round" filter="drop-shadow(0 6px 12px rgba(0,0,0,0.18))">
      <path d="M0 30 L200 30"/>
      <path d="M170 0 L200 30 L170 60"/>
    </g>
    <g transform="translate(740 110)">
      <g fill="#A5B4FC" stroke="#4F46E5" stroke-width="3">
        <rect x="0" y="0" width="280" height="64" rx="10"/>
        <rect x="0" y="76" width="280" height="64" rx="10"/>
        <rect x="0" y="152" width="280" height="64" rx="10"/>
      </g>
    </g>
  </g>
  <text x="80" y="820" font-family="ui-sans-serif, system-ui, sans-serif" font-size="40" font-weight="700" fill="#FFFFFF">Click. Shift-click. Drag.</text>
</svg>
